<svg xmlns="http://www.w3.org/2000/svg" width="182" height="32" fill="none" viewBox="0 0 182 32"><path fill="#fff" d="M46.727 19.884h5.62v2.023H44V5.744h2.727zm19.98-4.744q0 .675-.096 1.255H56.517q.12 1.605 1.172 2.558 1.052.93 2.607.93 2.2 0 3.11-1.79h2.942Q65.75 19.86 64.17 21q-1.554 1.116-3.875 1.116-1.89 0-3.396-.814a6.17 6.17 0 0 1-2.344-2.325q-.837-1.511-.837-3.489 0-1.976.813-3.465a5.8 5.8 0 0 1 2.32-2.325q1.508-.814 3.444-.814 1.866 0 3.325.79a5.7 5.7 0 0 1 2.272 2.21q.814 1.418.814 3.255m-2.847-.652q-.023-1.557-1.076-2.465-1.029-.906-2.607-.907-1.435 0-2.464.907-1.005.908-1.172 2.465zm4.621.955q0-1.93.814-3.419.838-1.488 2.248-2.302a6.15 6.15 0 0 1 3.158-.837q1.554 0 2.702.604 1.173.581 1.866 1.466V9.093h2.75v12.814h-2.75V20q-.693.907-1.89 1.512-1.196.604-2.726.604a6 6 0 0 1-3.11-.837q-1.41-.86-2.248-2.372-.813-1.534-.813-3.465m10.788.046q0-1.324-.574-2.302-.55-.976-1.459-1.488a3.93 3.93 0 0 0-1.961-.512q-1.053 0-1.962.512-.908.488-1.483 1.465-.55.953-.55 2.279t.55 2.325q.575 1 1.483 1.535a4.02 4.02 0 0 0 3.923 0q.909-.51 1.459-1.488.574-1 .574-2.326m5.422-.046q0-1.93.813-3.419.837-1.488 2.249-2.302 1.435-.837 3.18-.837 1.293 0 2.536.558 1.267.534 2.01 1.442V4.698h2.75v17.209h-2.75v-1.93q-.671.93-1.866 1.535-1.173.604-2.703.604-1.722 0-3.157-.837-1.411-.86-2.249-2.372-.813-1.534-.813-3.465m10.787.046q0-1.324-.574-2.302-.55-.976-1.459-1.488a3.93 3.93 0 0 0-1.961-.512q-1.052 0-1.961.512-.909.488-1.483 1.465-.55.953-.55 2.279t.55 2.325q.574 1 1.483 1.535a4.02 4.02 0 0 0 3.922 0q.91-.51 1.46-1.488.573-1 .573-2.326m11.81 6.582q-1.675 0-3.014-.558-1.34-.581-2.105-1.628t-.765-2.442h2.918q.095 1.093.837 1.79.765.699 2.129.698 1.41 0 2.2-.674.789-.698.789-1.79 0-.815-.502-1.326a3.16 3.16 0 0 0-1.22-.791q-.717-.28-2.009-.605-1.626-.418-2.655-.837a4.5 4.5 0 0 1-1.722-1.349q-.718-.906-.718-2.418 0-1.396.718-2.442.717-1.047 2.009-1.605t2.99-.558q2.416 0 3.946 1.186 1.555 1.162 1.723 3.21h-3.014q-.072-.954-.861-1.582-.765-.651-2.081-.651-1.196 0-1.937.604-.718.582-.718 1.745 0 .744.454 1.232.479.465 1.196.744.718.28 1.962.605 1.65.442 2.679.884a4.3 4.3 0 0 1 1.769 1.372q.742.906.742 2.442 0 1.232-.694 2.325-.67 1.093-1.985 1.768-1.291.65-3.061.65m10.345-14.674q-.742 0-1.244-.488a1.62 1.62 0 0 1-.502-1.21q0-.72.502-1.209.502-.488 1.244-.488.718 0 1.219.488.503.489.503 1.21 0 .72-.503 1.209a1.68 1.68 0 0 1-1.219.488m1.339 1.698v12.814h-2.727V9.093zm19.533-.209q1.555 0 2.775.628a4.5 4.5 0 0 1 1.937 1.86q.718 1.233.718 2.977v7.558h-2.703v-7.163q0-1.72-.885-2.628-.885-.93-2.416-.93t-2.439.93q-.885.907-.885 2.628v7.163h-2.703v-7.163q0-1.72-.885-2.628-.885-.93-2.416-.93t-2.439.93q-.885.907-.885 2.628v7.163h-2.727V9.093h2.727v1.465a4.5 4.5 0 0 1 1.698-1.232 5.5 5.5 0 0 1 2.2-.442q1.579 0 2.823.65a4.5 4.5 0 0 1 1.913 1.885q.599-1.164 1.866-1.838a5.6 5.6 0 0 1 2.726-.697m11.626 2.093q.694-.885 1.89-1.489t2.702-.604q1.723 0 3.134.837a5.77 5.77 0 0 1 2.248 2.302q.813 1.488.813 3.419 0 1.93-.813 3.465a6.06 6.06 0 0 1-2.248 2.372q-1.411.837-3.134.837-1.506 0-2.678-.581-1.173-.605-1.914-1.488V28h-2.727V9.093h2.727zm8.013 4.465q0-1.325-.574-2.28-.55-.976-1.483-1.464a4.02 4.02 0 0 0-3.923 0q-.909.51-1.483 1.488-.55.977-.55 2.302 0 1.327.55 2.326.574.976 1.483 1.488a4.02 4.02 0 0 0 3.923 0 3.9 3.9 0 0 0 1.483-1.535q.574-.999.574-2.325m8.197-10.744v17.209h-2.726V4.697zM182 15.14q0 .675-.096 1.255h-10.093q.12 1.605 1.172 2.558 1.051.93 2.607.93 2.2 0 3.109-1.79h2.942q-.597 1.767-2.176 2.907-1.555 1.116-3.875 1.116-1.89 0-3.396-.814a6.16 6.16 0 0 1-2.344-2.325q-.838-1.511-.838-3.489 0-1.976.814-3.465a5.8 5.8 0 0 1 2.32-2.325q1.506-.814 3.444-.814 1.866 0 3.325.79a5.7 5.7 0 0 1 2.272 2.21q.813 1.418.813 3.255m-2.846-.652q-.024-1.557-1.077-2.465-1.028-.906-2.607-.907-1.435 0-2.463.907-1.005.908-1.172 2.465z"/><path fill="#0952C2" d="m7.103 6.492.826 3.47a10.1 10.1 0 0 1 4.893-3.528l2.617-3.244L12.168.465A16.02 16.02 0 0 0 2.45 7.494z"/><path fill="#59B5FF" d="m17.898 2.943-2.392 2.989q.247-.013.498-.013c2.071 0 3.997.625 5.598 1.697l4.105-.036.03-4.278A15.93 15.93 0 0 0 14.465.075z"/><path fill="#4FA2EF" d="M32 15.727a15.94 15.94 0 0 0-4.503-10.856l-.038 4.451-3.862.05a10.03 10.03 0 0 1 2.448 5.743l2.676 3.237z"/><path fill="#2E6AC0" d="m8.73 26.964 3.48-1.623a10.1 10.1 0 0 1-4.884-4.208L3.69 19.45 1.8 23.37a16.06 16.06 0 0 0 8.724 7.668z"/><path fill="#458FDF" d="m28.472 20.81-2.542-3.051a10.06 10.06 0 0 1-2.841 5.412l-.967 4.13 4.086 1.023a15.97 15.97 0 0 0 5.656-10.22z"/><path fill="#2058B0" d="M2.854 17.125 6.289 18.7a10.1 10.1 0 0 1 .355-6.447l-.858-3.67-4.425.962A15.9 15.9 0 0 0 0 16c0 1.825.31 3.578.873 5.212z"/><path fill="#3A7CCF" d="m20.015 28.59.865-3.767a10.03 10.03 0 0 1-5.924 1.204l-3.915 1.806 1.698 3.833c1.054.218 2.146.334 3.265.334 3.044 0 5.889-.85 8.31-2.325z"/></svg>